<svg width="14" height="15" viewBox="0 0 14 15" fill="none" xmlns="http://www.w3.org/2000/svg">
<path d="M7 14.0376C6.0944 14.0376 5.2417 13.8641 4.44189 13.5171C3.64209 13.1743 2.9375 12.6982 2.32812 12.0889C1.71875 11.4795 1.24056 10.777 0.893555 9.98145C0.550781 9.18164 0.379395 8.32682 0.379395 7.41699C0.379395 6.51139 0.550781 5.66081 0.893555 4.86523C1.24056 4.06543 1.71663 3.36084 2.32178 2.75146C2.93115 2.14209 3.63574 1.66602 4.43555 1.32324C5.23535 0.976237 6.08805 0.802734 6.99365 0.802734C7.89925 0.802734 8.75195 0.976237 9.55176 1.32324C10.3558 1.66602 11.0604 2.14209 11.6655 2.75146C12.2749 3.36084 12.7531 4.06543 13.1001 4.86523C13.4471 5.66081 13.6206 6.51139 13.6206 7.41699C13.6206 8.32682 13.4471 9.18164 13.1001 9.98145C12.7531 10.777 12.2749 11.4795 11.6655 12.0889C11.0604 12.6982 10.3579 13.1743 9.55811 13.5171C8.7583 13.8641 7.9056 14.0376 7 14.0376ZM7 12.584C7.71517 12.584 8.38379 12.4507 9.00586 12.1841C9.63216 11.9175 10.1823 11.5493 10.6562 11.0796C11.1302 10.6056 11.5005 10.0576 11.7671 9.43555C12.0337 8.80924 12.167 8.13639 12.167 7.41699C12.167 6.70182 12.0316 6.0332 11.7607 5.41113C11.4941 4.78483 11.1239 4.2347 10.6499 3.76074C10.1802 3.28678 9.63216 2.9165 9.00586 2.6499C8.38379 2.3833 7.71305 2.25 6.99365 2.25C6.27848 2.25 5.60775 2.3833 4.98145 2.6499C4.35938 2.9165 3.81136 3.28678 3.3374 3.76074C2.86768 4.2347 2.49951 4.78483 2.23291 5.41113C1.97054 6.0332 1.83936 6.70182 1.83936 7.41699C1.83936 8.13639 1.97054 8.80924 2.23291 9.43555C2.49951 10.0576 2.86979 10.6056 3.34375 11.0796C3.81771 11.5493 4.36572 11.9175 4.98779 12.1841C5.6141 12.4507 6.28483 12.584 7 12.584ZM11.1514 11.6128C10.7367 11.9683 10.2839 12.2666 9.79297 12.5078C9.30632 12.7533 8.81966 12.9373 8.33301 13.0601C7.84635 13.187 7.40202 13.2505 7 13.2505C6.60645 13.2505 6.16423 13.187 5.67334 13.0601C5.18669 12.9373 4.69792 12.7533 4.20703 12.5078C3.71615 12.2666 3.26546 11.9683 2.85498 11.6128L2.88037 11.4731C3.03695 11.1642 3.30566 10.8701 3.68652 10.5908C4.06738 10.3073 4.53923 10.0767 5.10205 9.89893C5.66488 9.72119 6.29753 9.63232 7 9.63232C7.71094 9.63232 8.34782 9.72119 8.91064 9.89893C9.47347 10.0767 9.9432 10.3073 10.3198 10.5908C10.7007 10.8701 10.9694 11.1663 11.126 11.4795L11.1514 11.6128ZM7 8.61035C6.58952 8.60612 6.21924 8.49821 5.88916 8.28662C5.55908 8.07503 5.29671 7.78939 5.10205 7.42969C4.91162 7.06576 4.81429 6.65739 4.81006 6.20459C4.80583 5.77718 4.90104 5.38574 5.0957 5.03027C5.2946 4.6748 5.55908 4.38916 5.88916 4.17334C6.22347 3.95752 6.59375 3.84961 7 3.84961C7.41048 3.84961 7.78076 3.95752 8.11084 4.17334C8.44092 4.38916 8.70329 4.6748 8.89795 5.03027C9.09684 5.38574 9.19629 5.77718 9.19629 6.20459C9.19629 6.65739 9.09896 7.06576 8.9043 7.42969C8.70964 7.79362 8.44727 8.0835 8.11719 8.29932C7.78711 8.5109 7.41471 8.61458 7 8.61035Z" fill="white" fill-opacity="0.85"/>
</svg>
